<svg width="500" height="45" viewBox="0 0 500 45" fill="none" xmlns="http://www.w3.org/2000/svg">
<g clip-path="url(#clip0_549_48)">
<path d="M4.12619e-06 14.1166C-0.00272024 17.5197 1.34376 20.785 3.74436 23.1971C6.14496 25.6092 9.40388 26.9712 12.8069 26.9847H40.0057C40.5705 26.965 41.1335 27.0593 41.661 27.2619C42.1886 27.4644 42.67 27.7712 43.0765 28.1638C43.483 28.5564 43.8063 29.0268 44.0271 29.547C44.2479 30.0672 44.3617 30.6265 44.3617 31.1917C44.3617 31.7568 44.2479 32.3161 44.0271 32.8363C43.8063 33.3566 43.483 33.827 43.0765 34.2196C42.67 34.6122 42.1886 34.9189 41.661 35.1215C41.1335 35.324 40.5705 35.4183 40.0057 35.3986H2.13534C1.79603 35.4013 1.47146 35.5376 1.232 35.7781C0.992544 36.0185 0.857508 36.3436 0.856177 36.6829V42.7169C0.868714 43.0526 1.00736 43.3713 1.24445 43.6093C1.48154 43.8473 1.79966 43.9873 2.13534 44.0011H40.0057C43.4104 44.0011 46.6757 42.6486 49.0832 40.2411C51.4907 37.8336 52.8432 34.5684 52.8432 31.1636C52.8432 27.7589 51.4907 24.4937 49.0832 22.0862C46.6757 19.6787 43.4104 18.3261 40.0057 18.3261H12.8069C11.6905 18.3261 10.6198 17.8826 9.83035 17.0932C9.04091 16.3038 8.59741 15.233 8.59741 14.1166C8.59741 13.0002 9.04091 11.9295 9.83035 11.14C10.6198 10.3506 11.6905 9.90709 12.8069 9.90709H50.7385C51.0773 9.90575 51.4019 9.77055 51.6415 9.53095C51.8811 9.29135 52.0163 8.96678 52.0176 8.62794V2.60925C52.015 2.27082 51.8793 1.94699 51.64 1.70768C51.4007 1.46836 51.0769 1.33274 50.7385 1.33008H12.8069C9.41385 1.33007 6.15944 2.67657 3.75827 5.07393C1.35709 7.47128 0.00540497 10.7235 4.12619e-06 14.1166Z" fill="#F9F9F9"/>
<path d="M121.714 42.0696L112.628 26.0878C111.926 24.8261 111.042 23.6754 110.003 22.6733C111.043 21.6721 111.928 20.5213 112.628 19.2588L121.714 3.28196C121.827 3.08115 121.885 2.85408 121.882 2.62368C121.88 2.39328 121.816 2.1677 121.698 1.96971C121.58 1.77171 121.412 1.60832 121.211 1.49602C121.01 1.38372 120.783 1.32648 120.552 1.33009H113.662C113.427 1.32785 113.195 1.38916 112.991 1.50755C112.788 1.62593 112.62 1.79702 112.505 2.0028L105.126 15.0493C104.548 16.044 103.721 16.8712 102.727 17.4493C101.732 18.0275 100.604 18.3367 99.4537 18.3465H78.3552V2.60926C78.3587 2.43989 78.3278 2.27155 78.2644 2.11444C78.2011 1.95733 78.1065 1.81469 77.9865 1.69514C77.8665 1.57559 77.7235 1.48161 77.5661 1.41887C77.4087 1.35612 77.2403 1.32592 77.0709 1.33009H71.0369C70.6976 1.33142 70.3725 1.46646 70.1321 1.70592C69.8917 1.94538 69.7554 2.26995 69.7527 2.60926V42.7373C69.7653 43.0738 69.9047 43.3932 70.1428 43.6314C70.381 43.8696 70.7004 44.0089 71.0369 44.0215H77.0709C77.4111 44.0202 77.737 43.8845 77.9776 43.6439C78.2181 43.4034 78.3538 43.0775 78.3552 42.7373V27.0051H99.4537C100.604 27.0144 101.731 27.3229 102.726 27.9001C103.72 28.4773 104.547 29.3035 105.126 30.2973L112.505 43.3488C112.62 43.5546 112.788 43.7257 112.991 43.8441C113.195 43.9625 113.427 44.0238 113.662 44.0215H120.557C120.787 44.0242 121.014 43.9663 121.214 43.8537C121.415 43.741 121.582 43.5775 121.699 43.3797C121.817 43.1818 121.88 42.9566 121.882 42.7267C121.885 42.4967 121.827 42.2701 121.714 42.0696Z" fill="#F9F9F9"/>
<path d="M190.468 1.3301H183.578C183.341 1.32694 183.109 1.3878 182.904 1.50623C182.7 1.62466 182.531 1.79626 182.416 2.00281L174.853 15.4162C174.344 16.3084 173.607 17.0497 172.718 17.5645C171.829 18.0793 170.82 18.3491 169.792 18.3465H160.818C159.789 18.3566 158.777 18.0899 157.886 17.5743C156.996 17.0588 156.261 16.3134 155.757 15.4162L148.113 2.00281C148.018 1.79445 147.863 1.61915 147.668 1.49932C147.472 1.3795 147.246 1.32058 147.017 1.3301H140.091C139.866 1.33645 139.646 1.40111 139.453 1.51774C139.26 1.63437 139.101 1.799 138.99 1.99559C138.88 2.19218 138.823 2.41401 138.823 2.63945C138.824 2.8649 138.884 3.08626 138.996 3.28196L148.266 19.6868C149.528 21.9038 151.354 23.7481 153.558 25.0331C155.762 26.3182 158.267 26.9984 160.818 27.0051H160.94V42.7373C160.942 43.0766 161.077 43.4017 161.316 43.6421C161.555 43.8825 161.88 44.0188 162.219 44.0215H168.258C168.598 44.0188 168.922 43.8825 169.162 43.6421C169.401 43.4017 169.536 43.0766 169.538 42.7373V27.0051H169.782C172.335 27.0012 174.842 26.3223 177.049 25.0371C179.255 23.7518 181.082 21.906 182.345 19.6868L191.615 3.28196C191.727 3.08228 191.785 2.85664 191.783 2.62755C191.781 2.39846 191.718 2.17393 191.602 1.9764C191.486 1.77886 191.321 1.61522 191.121 1.50181C190.922 1.3884 190.697 1.3292 190.468 1.3301Z" fill="#F9F9F9"/>
<path d="M208.723 19.6257V42.7373C208.734 43.0734 208.872 43.3928 209.11 43.6311C209.347 43.8694 209.666 44.0089 210.002 44.0216H216.041C216.38 44.0189 216.705 43.8826 216.944 43.6422C217.184 43.4017 217.319 43.0766 217.32 42.7373V27.0051H239.152C240.179 27.0015 241.189 27.2704 242.078 27.7843C242.967 28.2982 243.704 29.0388 244.213 29.9304L251.776 43.3489C251.89 43.5546 252.058 43.7257 252.262 43.8441C252.466 43.9625 252.697 44.0238 252.933 44.0216H259.889C260.115 44.0152 260.334 43.9506 260.527 43.8339C260.72 43.7173 260.88 43.5527 260.99 43.3561C261.1 43.1595 261.158 42.9376 261.157 42.7122C261.156 42.4868 261.097 42.2654 260.985 42.0697L251.898 26.0266C254.654 24.9036 256.934 22.8568 258.346 20.2371C259.759 17.6174 260.216 14.5879 259.639 11.6681C259.063 8.7483 257.488 6.12002 255.186 4.23385C252.884 2.34768 249.997 1.32111 247.021 1.33014H210.017C209.678 1.33148 209.354 1.46668 209.114 1.70628C208.874 1.94588 208.739 2.27046 208.738 2.60931V8.64837C208.739 8.98721 208.874 9.3118 209.114 9.5514C209.354 9.791 209.678 9.9262 210.017 9.92754H247.036C248.153 9.92754 249.224 10.371 250.013 11.1605C250.802 11.9499 251.246 13.0206 251.246 14.137C251.246 15.2535 250.802 16.3242 250.013 17.1136C249.224 17.9031 248.153 18.3466 247.036 18.3466H210.017C209.679 18.3542 209.356 18.4909 209.116 18.7288C208.875 18.9666 208.734 19.2876 208.723 19.6257Z" fill="#F9F9F9"/>
<path d="M336.185 42.1461L317.839 6.71686C316.936 4.90315 315.591 3.34573 313.928 2.18798C312.266 1.03024 310.339 0.309363 308.324 0.0917148C305.989 -0.13215 303.64 0.353019 301.585 1.48393C299.529 2.61485 297.862 4.33901 296.802 6.43147L278.251 42.1461C278.151 42.3444 278.104 42.5647 278.113 42.7864C278.122 43.0081 278.188 43.2238 278.304 43.4131C278.42 43.6024 278.582 43.759 278.775 43.8682C278.968 43.9773 279.186 44.0354 279.408 44.0368H286.237C286.473 44.0411 286.706 43.9812 286.91 43.8636C287.115 43.7461 287.284 43.5752 287.399 43.3692L304.41 10.376C304.677 9.86312 305.08 9.4333 305.574 9.13333C306.068 8.83336 306.635 8.67475 307.213 8.67475C307.791 8.67475 308.358 8.83336 308.853 9.13333C309.347 9.4333 309.749 9.86312 310.016 10.376L327.033 43.3692C327.147 43.5744 327.315 43.7448 327.519 43.8623C327.723 43.9798 327.954 44.0401 328.189 44.0368H335.024C335.246 44.0362 335.464 43.9788 335.658 43.87C335.852 43.7612 336.015 43.6047 336.131 43.4153C336.248 43.2259 336.314 43.0098 336.323 42.7877C336.333 42.5656 336.285 42.3447 336.185 42.1461Z" fill="#F9F9F9"/>
<path d="M387.536 1.33008H354.542C354.207 1.34269 353.889 1.48151 353.652 1.71872C353.415 1.95593 353.276 2.27402 353.263 2.60925V8.64831C353.265 8.98715 353.4 9.31174 353.639 9.55134C353.879 9.79094 354.204 9.92614 354.542 9.92748H387.536C388.637 9.93082 389.728 10.1513 390.744 10.5763C391.761 11.0014 392.683 11.6226 393.46 12.4045C394.236 13.1864 394.85 14.1137 395.268 15.1333C395.686 16.1528 395.898 17.2447 395.893 18.3465V27.0102C395.898 28.1115 395.684 29.2029 395.267 30.2219C394.849 31.2409 394.234 32.1675 393.458 32.9489C392.682 33.7303 391.759 34.351 390.743 34.7757C389.727 35.2004 388.637 35.4208 387.536 35.4241H361.861V19.8703C361.866 19.701 361.836 19.5324 361.773 19.375C361.711 19.2176 361.617 19.0746 361.497 18.9548C361.377 18.8351 361.234 18.741 361.077 18.6785C360.919 18.6159 360.751 18.5862 360.581 18.5912H354.542C354.204 18.5925 353.879 18.7277 353.639 18.9673C353.4 19.2069 353.265 19.5314 353.263 19.8703V42.7372C353.276 43.073 353.414 43.3917 353.651 43.6297C353.889 43.8678 354.207 44.0076 354.542 44.0215H387.536C392.048 44.0202 396.376 42.2269 399.567 39.036C402.757 35.8451 404.551 31.5177 404.552 27.0051V18.3414C404.549 13.8297 402.755 9.50357 399.565 6.31376C396.374 3.12395 392.047 1.33143 387.536 1.33008Z" fill="#F9F9F9"/>
<path d="M428.81 1.33013H422.766C422.428 1.33279 422.104 1.46841 421.864 1.70773C421.625 1.94704 421.489 2.27086 421.487 2.60929V42.7373C421.499 43.073 421.638 43.3917 421.875 43.6298C422.112 43.8678 422.43 44.0077 422.766 44.0216H428.805C429.144 44.0189 429.469 43.8825 429.708 43.6421C429.948 43.4017 430.083 43.0766 430.084 42.7373V2.60929C430.088 2.4408 430.057 2.27333 429.994 2.11692C429.932 1.9605 429.838 1.81833 429.719 1.69892C429.6 1.57952 429.458 1.48531 429.302 1.42195C429.146 1.35858 428.979 1.32735 428.81 1.33013Z" fill="#F9F9F9"/>
<path d="M499.832 42.0697L490.745 26.0878C490.064 24.8129 489.177 23.6593 488.121 22.6733C489.179 21.6885 490.066 20.5346 490.745 19.2589L499.832 3.28203C499.945 3.0816 500.003 2.85502 500 2.62506C499.997 2.3951 499.934 2.16986 499.817 1.97202C499.7 1.77418 499.533 1.61072 499.332 1.49804C499.132 1.38537 498.905 1.32747 498.675 1.33017H491.78C491.544 1.32793 491.313 1.38924 491.109 1.50762C490.905 1.62601 490.737 1.7971 490.623 2.00288L483.243 15.0493C482.666 16.0441 481.839 16.8713 480.844 17.4494C479.85 18.0276 478.722 18.3368 477.571 18.3466H469.463C468.304 18.3393 467.167 18.0317 466.162 17.4539C465.157 16.876 464.319 16.0475 463.73 15.0493L456.351 2.00288C456.255 1.79411 456.099 1.61864 455.903 1.49883C455.707 1.37903 455.479 1.32031 455.25 1.33017H448.298C448.073 1.33652 447.853 1.40118 447.66 1.51781C447.467 1.63444 447.308 1.79907 447.198 1.99566C447.087 2.19225 447.03 2.41408 447.031 2.63952C447.031 2.86497 447.091 3.08633 447.203 3.28203L456.228 19.2589C456.948 20.5066 457.829 21.6546 458.848 22.6733C457.83 23.6931 456.95 24.8409 456.228 26.0878L447.228 42.0697C447.116 42.2654 447.057 42.4868 447.056 42.7122C447.055 42.9377 447.113 43.1595 447.223 43.3561C447.333 43.5527 447.493 43.7173 447.686 43.834C447.879 43.9506 448.099 44.0152 448.324 44.0216H455.275C455.505 44.0315 455.732 43.9728 455.928 43.853C456.124 43.7331 456.28 43.5577 456.376 43.3489L463.755 30.2974C464.345 29.3001 465.183 28.4727 466.188 27.8957C467.193 27.3188 468.33 27.0119 469.489 27.0052H477.597C478.747 27.0145 479.874 27.3229 480.869 27.9002C481.863 28.4774 482.691 29.3035 483.269 30.2974L490.648 43.3489C490.763 43.5547 490.931 43.7258 491.134 43.8442C491.338 43.9625 491.57 44.0238 491.805 44.0216H498.7C498.928 44.0198 499.152 43.9587 499.349 43.8442C499.546 43.7297 499.709 43.5658 499.824 43.3687C499.938 43.1716 499.999 42.9482 500 42.7204C500.002 42.4925 499.944 42.2683 499.832 42.0697Z" fill="#F9F9F9"/>
</g>
<defs>
<clipPath id="clip0_549_48">
<rect width="500" height="44.0165" fill="white"/>
</clipPath>
</defs>
</svg>
