<svg width="1201" height="972" viewBox="0 0 1201 972" fill="none" xmlns="http://www.w3.org/2000/svg">
<path d="M106.229 24.5244H251.408V-87H252.408V24.5244H391.321V-87H392.321V24.5244H527.058V-87H528.058V24.5244H660.229V-87H661.229V24.5244H806.408V-87H807.408V24.5244H946.321V-87H947.321V24.5244H1082.06V-87H1083.06V24.5244H1189.83V25.5244H1083.06V154.031H1189.83V155.031H1083.06V300.136H1195.54V301.136H1083.06V439.98H1201V440.98H1083.06V559.524H1189.83V560.524H1083.06V689.031H1189.83V690.031H1083.06V835.136H1195.54V836.136H1083.06V974.98H1201V975.98H1083.06V1083H1082.06V975.98H947.321V1083H946.321V975.98H807.408V1083H806.408V975.98H661.229V1083H660.229V975.98H528.058V1083H527.058V975.98H392.321V1083H391.321V975.98H252.408V1083H251.408V975.98H106.229V1083H105.229V975.98H11.1699V974.98H105.229V836.136H5.70801V835.136H105.229V690.031H0V689.031H105.229V560.524H0V559.524H105.229V440.98H11.1699V439.98H105.229V301.136H5.70801V300.136H105.229V155.031H0V154.031H105.229V25.5244H0V24.5244H105.229V-87H106.229V24.5244ZM528.058 836.136V974.98H660.229V836.136H528.058ZM106.229 974.98H251.408V836.136H106.229V974.98ZM252.408 974.98H391.321V836.136H252.408V974.98ZM392.321 974.98H527.058V836.136H392.321V974.98ZM661.229 974.98H806.408V836.136H661.229V974.98ZM807.408 974.98H946.321V836.136H807.408V974.98ZM947.321 974.98H1082.06V836.136H947.321V974.98ZM528.058 690.031V835.136H660.229V690.031H528.058ZM106.229 835.136H251.408V690.031H106.229V835.136ZM252.408 835.136H391.321V690.031H252.408V835.136ZM392.321 835.136H527.058V690.031H392.321V835.136ZM661.229 835.136H806.408V690.031H661.229V835.136ZM807.408 835.136H946.321V690.031H807.408V835.136ZM947.321 835.136H1082.06V690.031H947.321V835.136ZM528.058 560.524V689.031H660.229V560.524H528.058ZM106.229 689.031H251.408V560.524H106.229V689.031ZM252.408 689.031H391.321V560.524H252.408V689.031ZM392.321 689.031H527.058V560.524H392.321V689.031ZM661.229 689.031H806.408V560.524H661.229V689.031ZM807.408 689.031H946.321V560.524H807.408V689.031ZM947.321 689.031H1082.06V560.524H947.321V689.031ZM528.058 559.524H660.229V440.98H528.058V559.524ZM106.229 559.524H251.408V440.98H106.229V559.524ZM252.408 559.524H391.321V440.98H252.408V559.524ZM392.321 559.524H527.058V440.98H392.321V559.524ZM661.229 559.524H806.408V440.98H661.229V559.524ZM807.408 559.524H946.321V440.98H807.408V559.524ZM947.321 559.524H1082.06V440.98H947.321V559.524ZM106.229 439.98H251.408V301.136H106.229V439.98ZM252.408 439.98H391.321V301.136H252.408V439.98ZM392.321 439.98H527.058V301.136H392.321V439.98ZM528.058 439.98H660.229V301.136H528.058V439.98ZM661.229 439.98H806.408V301.136H661.229V439.98ZM807.408 439.98H946.321V301.136H807.408V439.98ZM947.321 439.98H1082.06V301.136H947.321V439.98ZM106.229 300.136H251.408V155.031H106.229V300.136ZM252.408 300.136H391.321V155.031H252.408V300.136ZM392.321 300.136H527.058V155.031H392.321V300.136ZM528.058 300.136H660.229V155.031H528.058V300.136ZM661.229 300.136H806.408V155.031H661.229V300.136ZM807.408 300.136H946.321V155.031H807.408V300.136ZM947.321 300.136H1082.06V155.031H947.321V300.136ZM106.229 154.031H251.408V25.5244H106.229V154.031ZM252.408 154.031H391.321V25.5244H252.408V154.031ZM392.321 154.031H527.058V25.5244H392.321V154.031ZM528.058 154.031H660.229V25.5244H528.058V154.031ZM661.229 154.031H806.408V25.5244H661.229V154.031ZM807.408 154.031H946.321V25.5244H807.408V154.031ZM947.321 154.031H1082.06V25.5244H947.321V154.031Z" fill="url(#paint0_radial_218_990)" fill-opacity="0.6"/>
<defs>
<radialGradient id="paint0_radial_218_990" cx="0" cy="0" r="1" gradientUnits="userSpaceOnUse" gradientTransform="translate(600.5 501) rotate(89.9472) scale(543 554.543)">
<stop stop-color="#E1E1E1" stop-opacity="0.6"/>
<stop offset="0.841346"/>
</radialGradient>
</defs>
</svg>
