<svg width="302" height="52" viewBox="0 0 302 52" fill="none" xmlns="http://www.w3.org/2000/svg">
<path d="M0 0.000141144H5.14286V5.143H0V0.000141144ZM5.14286 0.000141144H10.2857V5.143H5.14286V0.000141144ZM10.2857 0.000141144H15.4286V5.143H10.2857V0.000141144ZM15.4286 0.000141144H20.5714V5.143H15.4286V0.000141144ZM20.5714 0.000141144H25.7143V5.143H20.5714V0.000141144ZM25.7143 0.000141144H30.8571V5.143H25.7143V0.000141144ZM25.7143 5.143H30.8571V10.2859H25.7143V5.143ZM20.5714 5.143H25.7143V10.2859H20.5714V5.143ZM15.4286 5.143H20.5714V10.2859H15.4286V5.143ZM10.2857 5.143H15.4286V10.2859H10.2857V5.143ZM5.14286 5.143H10.2857V10.2859H5.14286V5.143ZM0 5.143H5.14286V10.2859H0V5.143ZM10.2857 10.2859H15.4286V15.4287H10.2857V10.2859ZM10.2857 15.4287H15.4286V20.5716H10.2857V15.4287ZM10.2857 20.5716H15.4286V25.7144H10.2857V20.5716ZM10.2857 25.7144H15.4286V30.8573H10.2857V25.7144ZM10.2857 30.8573H15.4286V36.0001H10.2857V30.8573ZM10.2857 36.0001H15.4286V41.143H10.2857V36.0001ZM15.4286 30.8573H20.5714V36.0001H15.4286V30.8573ZM15.4286 25.7144H20.5714V30.8573H15.4286V25.7144ZM15.4286 20.5716H20.5714V25.7144H15.4286V20.5716ZM15.4286 15.4287H20.5714V20.5716H15.4286V15.4287ZM15.4286 10.2859H20.5714V15.4287H15.4286V10.2859ZM15.4286 36.0001H20.5714V41.143H15.4286V36.0001ZM15.4286 41.143H20.5714V46.2859H15.4286V41.143ZM15.4286 46.2859H20.5714V51.4287H15.4286V46.2859ZM10.2857 46.2859H15.4286V51.4287H10.2857V46.2859ZM10.2857 41.143H15.4286V46.2859H10.2857V41.143ZM45.3257 10.2859H50.4686V15.4287H45.3257V10.2859ZM40.1829 10.2859H45.3257V15.4287H40.1829V10.2859ZM40.1829 15.4287H45.3257V20.5716H40.1829V15.4287ZM45.3257 15.4287H50.4686V20.5716H45.3257V15.4287ZM50.4686 10.2859H55.6114V15.4287H50.4686V10.2859ZM55.6114 10.2859H60.7543V15.4287H55.6114V10.2859ZM60.7543 10.2859H65.8971V15.4287H60.7543V10.2859ZM60.7543 15.4287H65.8971V20.5716H60.7543V15.4287ZM55.6114 15.4287H60.7543V20.5716H55.6114V15.4287ZM65.8971 15.4287H71.04V20.5716H65.8971V15.4287ZM65.8971 20.5716H71.04V25.7144H65.8971V20.5716ZM65.8971 41.143H71.04V46.2859H65.8971V41.143ZM60.7543 41.143H65.8971V46.2859H60.7543V41.143ZM60.7543 20.5716H65.8971V25.7144H60.7543V20.5716ZM55.6114 41.143H60.7543V46.2859H55.6114V41.143ZM60.7543 46.2859H65.8971V51.4287H60.7543V46.2859ZM55.6114 46.2859H60.7543V51.4287H55.6114V46.2859ZM50.4686 46.2859H55.6114V51.4287H50.4686V46.2859ZM45.3257 46.2859H50.4686V51.4287H45.3257V46.2859ZM40.1829 46.2859H45.3257V51.4287H40.1829V46.2859ZM40.1829 41.143H45.3257V46.2859H40.1829V41.143ZM45.3257 41.143H50.4686V46.2859H45.3257V41.143ZM40.1829 36.0001H45.3257V41.143H40.1829V36.0001ZM35.04 41.143H40.1829V46.2859H35.04V41.143ZM35.04 36.0001H40.1829V41.143H35.04V36.0001ZM35.04 30.8573H40.1829V36.0001H35.04V30.8573ZM35.04 25.7144H40.1829V30.8573H35.04V25.7144ZM35.04 20.5716H40.1829V25.7144H35.04V20.5716ZM35.04 15.4287H40.1829V20.5716H35.04V15.4287ZM40.1829 20.5716H45.3257V25.7144H40.1829V20.5716ZM40.1829 25.7144H45.3257V30.8573H40.1829V25.7144ZM40.1829 30.8573H45.3257V36.0001H40.1829V30.8573ZM50.4686 41.143H55.6114V46.2859H50.4686V41.143ZM50.4686 15.4287H55.6114V20.5716H50.4686V15.4287ZM60.7543 25.7144H65.8971V30.8573H60.7543V25.7144ZM65.8971 25.7144H71.04V30.8573H65.8971V25.7144ZM45.3257 30.8573H50.4686V36.0001H45.3257V30.8573ZM50.4686 30.8573H55.6114V36.0001H50.4686V30.8573ZM55.6114 30.8573H60.7543V36.0001H55.6114V30.8573ZM60.7543 30.8573H65.8971V36.0001H60.7543V30.8573ZM65.8971 30.8573H71.04V36.0001H65.8971V30.8573ZM55.6114 25.7144H60.7543V30.8573H55.6114V25.7144ZM50.4686 25.7144H55.6114V30.8573H50.4686V25.7144ZM45.3257 25.7144H50.4686V30.8573H45.3257V25.7144ZM85.522 10.2859H90.6648V15.4287H85.522V10.2859ZM80.3791 10.2859H85.522V15.4287H80.3791V10.2859ZM80.3791 15.4287H85.522V20.5716H80.3791V15.4287ZM85.522 15.4287H90.6648V20.5716H85.522V15.4287ZM90.6648 10.2859H95.8077V15.4287H90.6648V10.2859ZM95.8077 10.2859H100.951V15.4287H95.8077V10.2859ZM100.951 10.2859H106.093V15.4287H100.951V10.2859ZM100.951 15.4287H106.093V20.5716H100.951V15.4287ZM95.8077 15.4287H100.951V20.5716H95.8077V15.4287ZM106.093 15.4287H111.236V20.5716H106.093V15.4287ZM106.093 20.5716H111.236V25.7144H106.093V20.5716ZM106.093 36.0001H111.236V41.143H106.093V36.0001ZM106.093 41.143H111.236V46.2859H106.093V41.143ZM100.951 41.143H106.093V46.2859H100.951V41.143ZM100.951 36.0001H106.093V41.143H100.951V36.0001ZM100.951 20.5716H106.093V25.7144H100.951V20.5716ZM95.8077 41.143H100.951V46.2859H95.8077V41.143ZM100.951 46.2859H106.093V51.4287H100.951V46.2859ZM95.8077 46.2859H100.951V51.4287H95.8077V46.2859ZM90.6648 46.2859H95.8077V51.4287H90.6648V46.2859ZM85.522 46.2859H90.6648V51.4287H85.522V46.2859ZM80.3791 46.2859H85.522V51.4287H80.3791V46.2859ZM80.3791 41.143H85.522V46.2859H80.3791V41.143ZM85.522 41.143H90.6648V46.2859H85.522V41.143ZM80.3791 36.0001H85.522V41.143H80.3791V36.0001ZM75.2363 41.143H80.3791V46.2859H75.2363V41.143ZM75.2363 36.0001H80.3791V41.143H75.2363V36.0001ZM75.2363 30.8573H80.3791V36.0001H75.2363V30.8573ZM75.2363 25.7144H80.3791V30.8573H75.2363V25.7144ZM75.2363 20.5716H80.3791V25.7144H75.2363V20.5716ZM75.2363 15.4287H80.3791V20.5716H75.2363V15.4287ZM80.3791 20.5716H85.522V25.7144H80.3791V20.5716ZM80.3791 25.7144H85.522V30.8573H80.3791V25.7144ZM80.3791 30.8573H85.522V36.0001H80.3791V30.8573ZM90.6648 41.143H95.8077V46.2859H90.6648V41.143ZM90.6648 15.4287H95.8077V20.5716H90.6648V15.4287ZM115.433 15.4287H120.575V20.5716H115.433V15.4287ZM115.433 10.2859H120.575V15.4287H115.433V10.2859ZM120.575 10.2859H125.718V15.4287H120.575V10.2859ZM120.575 15.4287H125.718V20.5716H120.575V15.4287ZM120.575 20.5716H125.718V25.7144H120.575V20.5716ZM120.575 25.7144H125.718V30.8573H120.575V25.7144ZM120.575 30.8573H125.718V36.0001H120.575V30.8573ZM115.433 30.8573H120.575V36.0001H115.433V30.8573ZM115.433 25.7144H120.575V30.8573H115.433V25.7144ZM115.433 20.5716H120.575V25.7144H115.433V20.5716ZM115.433 36.0001H120.575V41.143H115.433V36.0001ZM120.575 36.0001H125.718V41.143H120.575V36.0001ZM120.575 41.143H125.718V46.2859H120.575V41.143ZM120.575 46.2859H125.718V51.4287H120.575V46.2859ZM115.433 46.2859H120.575V51.4287H115.433V46.2859ZM115.433 41.143H120.575V46.2859H115.433V41.143ZM141.147 46.2859H146.29V51.4287H141.147V46.2859ZM146.29 46.2859H151.433V51.4287H146.29V46.2859ZM146.29 41.143H151.433V46.2859H146.29V41.143ZM146.29 36.0001H151.433V41.143H146.29V36.0001ZM146.29 30.8573H151.433V36.0001H146.29V30.8573ZM146.29 25.7144H151.433V30.8573H146.29V25.7144ZM146.29 20.5716H151.433V25.7144H146.29V20.5716ZM146.29 15.4287H151.433V20.5716H146.29V15.4287ZM141.147 25.7144H146.29V30.8573H141.147V25.7144ZM141.147 30.8573H146.29V36.0001H141.147V30.8573ZM141.147 36.0001H146.29V41.143H141.147V36.0001ZM141.147 41.143H146.29V46.2859H141.147V41.143ZM141.147 20.5716H146.29V25.7144H141.147V20.5716ZM125.718 15.4287H130.861V20.5716H125.718V15.4287ZM130.861 15.4287H136.004V20.5716H130.861V15.4287ZM136.004 15.4287H141.147V20.5716H136.004V15.4287ZM136.004 10.2859H141.147V15.4287H136.004V10.2859ZM141.147 10.2859H146.29V15.4287H141.147V10.2859ZM141.147 15.4287H146.29V20.5716H141.147V15.4287ZM130.861 10.2859H136.004V15.4287H130.861V10.2859ZM115.433 0.000141144H120.575V5.143H115.433V0.000141144ZM120.575 0.000141144H125.718V5.143H120.575V0.000141144ZM120.575 5.143H125.718V10.2859H120.575V5.143ZM115.433 5.143H120.575V10.2859H115.433V5.143ZM171.057 25.7144H176.2V30.8573H171.057V25.7144ZM171.057 20.5716H176.2V25.7144H171.057V20.5716ZM176.2 20.5716H181.343V25.7144H176.2V20.5716ZM176.2 25.7144H181.343V30.8573H176.2V25.7144ZM176.2 30.8573H181.343V36.0001H176.2V30.8573ZM171.057 30.8573H176.2V36.0001H171.057V30.8573ZM171.057 10.2859H176.2V15.4287H171.057V10.2859ZM171.057 15.4287H176.2V20.5716H171.057V15.4287ZM165.914 20.5716H171.057V25.7144H165.914V20.5716ZM165.914 15.4287H171.057V20.5716H165.914V15.4287ZM165.914 10.2859H171.057V15.4287H165.914V10.2859ZM155.629 0.000141144H160.772V5.143H155.629V0.000141144ZM160.772 0.000141144H165.914V5.143H160.772V0.000141144ZM165.914 0.000141144H171.057V5.143H165.914V0.000141144ZM165.914 5.143H171.057V10.2859H165.914V5.143ZM160.772 5.143H165.914V10.2859H160.772V5.143ZM155.629 5.143H160.772V10.2859H155.629V5.143ZM155.629 10.2859H160.772V15.4287H155.629V10.2859ZM160.772 10.2859H165.914V15.4287H160.772V10.2859ZM160.772 15.4287H165.914V20.5716H160.772V15.4287ZM160.772 20.5716H165.914V25.7144H160.772V20.5716ZM155.629 20.5716H160.772V25.7144H155.629V20.5716ZM155.629 15.4287H160.772V20.5716H155.629V15.4287ZM155.629 25.7144H160.772V30.8573H155.629V25.7144ZM160.772 25.7144H165.914V30.8573H160.772V25.7144ZM160.772 30.8573H165.914V36.0001H160.772V30.8573ZM160.772 36.0001H165.914V41.143H160.772V36.0001ZM160.772 41.143H165.914V46.2859H160.772V41.143ZM160.772 46.2859H165.914V51.4287H160.772V46.2859ZM155.629 46.2859H160.772V51.4287H155.629V46.2859ZM155.629 41.143H160.772V46.2859H155.629V41.143ZM155.629 36.0001H160.772V41.143H155.629V36.0001ZM155.629 30.8573H160.772V36.0001H155.629V30.8573ZM176.2 36.0001H181.343V41.143H176.2V36.0001ZM176.2 41.143H181.343V46.2859H176.2V41.143ZM181.343 36.0001H186.486V41.143H181.343V36.0001ZM181.343 30.8573H186.486V36.0001H181.343V30.8573ZM181.343 41.143H186.486V46.2859H181.343V41.143ZM181.343 46.2859H186.486V51.4287H181.343V46.2859ZM186.486 46.2859H191.629V51.4287H186.486V46.2859ZM191.629 46.2859H196.772V51.4287H191.629V46.2859ZM191.629 41.143H196.772V46.2859H191.629V41.143ZM191.629 36.0001H196.772V41.143H191.629V36.0001ZM186.486 36.0001H191.629V41.143H186.486V36.0001ZM186.486 41.143H191.629V46.2859H186.486V41.143ZM186.486 30.8573H191.629V36.0001H186.486V30.8573ZM191.629 25.7144H196.772V30.8573H191.629V25.7144ZM191.629 20.5716H196.772V25.7144H191.629V20.5716ZM191.629 30.8573H196.772V36.0001H191.629V30.8573ZM186.486 25.7144H191.629V30.8573H186.486V25.7144ZM186.486 20.5716H191.629V25.7144H186.486V20.5716ZM186.486 15.4287H191.629V20.5716H186.486V15.4287ZM191.629 15.4287H196.772V20.5716H191.629V15.4287ZM191.629 10.2859H196.772V15.4287H191.629V10.2859ZM186.486 0.000141144H191.629V5.143H186.486V0.000141144ZM191.629 0.000141144H196.772V5.143H191.629V0.000141144ZM191.629 5.143H196.772V10.2859H191.629V5.143ZM186.486 5.143H191.629V10.2859H186.486V5.143ZM186.486 10.2859H191.629V15.4287H186.486V10.2859ZM211.267 10.2859H216.41V15.4287H211.267V10.2859ZM206.124 10.2859H211.267V15.4287H206.124V10.2859ZM206.124 15.4287H211.267V20.5716H206.124V15.4287ZM211.267 15.4287H216.41V20.5716H211.267V15.4287ZM216.41 10.2859H221.553V15.4287H216.41V10.2859ZM221.553 10.2859H226.696V15.4287H221.553V10.2859ZM226.696 10.2859H231.838V15.4287H226.696V10.2859ZM226.696 15.4287H231.838V20.5716H226.696V15.4287ZM221.553 15.4287H226.696V20.5716H221.553V15.4287ZM231.838 15.4287H236.981V20.5716H231.838V15.4287ZM231.838 20.5716H236.981V25.7144H231.838V20.5716ZM231.838 41.143H236.981V46.2859H231.838V41.143ZM226.696 41.143H231.838V46.2859H226.696V41.143ZM226.696 20.5716H231.838V25.7144H226.696V20.5716ZM221.553 41.143H226.696V46.2859H221.553V41.143ZM226.696 46.2859H231.838V51.4287H226.696V46.2859ZM221.553 46.2859H226.696V51.4287H221.553V46.2859ZM216.41 46.2859H221.553V51.4287H216.41V46.2859ZM211.267 46.2859H216.41V51.4287H211.267V46.2859ZM206.124 46.2859H211.267V51.4287H206.124V46.2859ZM206.124 41.143H211.267V46.2859H206.124V41.143ZM211.267 41.143H216.41V46.2859H211.267V41.143ZM206.124 36.0001H211.267V41.143H206.124V36.0001ZM200.981 41.143H206.124V46.2859H200.981V41.143ZM200.981 36.0001H206.124V41.143H200.981V36.0001ZM200.981 30.8573H206.124V36.0001H200.981V30.8573ZM200.981 25.7144H206.124V30.8573H200.981V25.7144ZM200.981 20.5716H206.124V25.7144H200.981V20.5716ZM200.981 15.4287H206.124V20.5716H200.981V15.4287ZM206.124 20.5716H211.267V25.7144H206.124V20.5716ZM206.124 25.7144H211.267V30.8573H206.124V25.7144ZM206.124 30.8573H211.267V36.0001H206.124V30.8573ZM216.41 41.143H221.553V46.2859H216.41V41.143ZM216.41 15.4287H221.553V20.5716H216.41V15.4287ZM226.696 25.7144H231.838V30.8573H226.696V25.7144ZM231.838 25.7144H236.981V30.8573H231.838V25.7144ZM211.267 30.8573H216.41V36.0001H211.267V30.8573ZM216.41 30.8573H221.553V36.0001H216.41V30.8573ZM221.553 30.8573H226.696V36.0001H221.553V30.8573ZM226.696 30.8573H231.838V36.0001H226.696V30.8573ZM231.838 30.8573H236.981V36.0001H231.838V30.8573ZM221.553 25.7144H226.696V30.8573H221.553V25.7144ZM216.41 25.7144H221.553V30.8573H216.41V25.7144ZM211.267 25.7144H216.41V30.8573H211.267V25.7144ZM241.178 15.4287H246.32V20.5716H241.178V15.4287ZM246.32 20.5716H251.463V25.7144H246.32V20.5716ZM241.178 20.5716H246.32V25.7144H241.178V20.5716ZM241.178 25.7144H246.32V30.8573H241.178V25.7144ZM246.32 25.7144H251.463V30.8573H246.32V25.7144ZM246.32 30.8573H251.463V36.0001H246.32V30.8573ZM251.463 30.8573H256.606V36.0001H251.463V30.8573ZM256.606 30.8573H261.749V36.0001H256.606V30.8573ZM261.749 25.7144H266.892V30.8573H261.749V25.7144ZM256.606 25.7144H261.749V30.8573H256.606V25.7144ZM251.463 25.7144H256.606V30.8573H251.463V25.7144ZM261.749 30.8573H266.892V36.0001H261.749V30.8573ZM266.892 30.8573H272.035V36.0001H266.892V30.8573ZM266.892 36.0001H272.035V41.143H266.892V36.0001ZM261.749 36.0001H266.892V41.143H261.749V36.0001ZM261.749 41.143H266.892V46.2859H261.749V41.143ZM266.892 41.143H272.035V46.2859H266.892V41.143ZM261.749 46.2859H266.892V51.4287H261.749V46.2859ZM256.606 41.143H261.749V46.2859H256.606V41.143ZM251.463 41.143H256.606V46.2859H251.463V41.143ZM246.32 41.143H251.463V46.2859H246.32V41.143ZM241.178 41.143H246.32V46.2859H241.178V41.143ZM246.32 46.2859H251.463V51.4287H246.32V46.2859ZM251.463 46.2859H256.606V51.4287H251.463V46.2859ZM256.606 46.2859H261.749V51.4287H256.606V46.2859ZM266.892 15.4287H272.035V20.5716H266.892V15.4287ZM261.749 15.4287H266.892V20.5716H261.749V15.4287ZM261.749 10.2859H266.892V15.4287H261.749V10.2859ZM256.606 10.2859H261.749V15.4287H256.606V10.2859ZM251.463 10.2859H256.606V15.4287H251.463V10.2859ZM246.32 10.2859H251.463V15.4287H246.32V10.2859ZM246.32 15.4287H251.463V20.5716H246.32V15.4287ZM251.463 15.4287H256.606V20.5716H251.463V15.4287ZM256.606 15.4287H261.749V20.5716H256.606V15.4287ZM296.789 41.143H301.932V46.2859H296.789V41.143ZM296.789 46.2859H301.932V51.4287H296.789V46.2859ZM291.646 46.2859H296.789V51.4287H291.646V46.2859ZM291.646 41.143H296.789V46.2859H291.646V41.143ZM286.503 46.2859H291.646V51.4287H286.503V46.2859ZM286.503 41.143H291.646V46.2859H286.503V41.143ZM281.36 41.143H286.503V46.2859H281.36V41.143ZM281.36 36.0001H286.503V41.143H281.36V36.0001ZM281.36 30.8573H286.503V36.0001H281.36V30.8573ZM281.36 25.7144H286.503V30.8573H281.36V25.7144ZM281.36 20.5716H286.503V25.7144H281.36V20.5716ZM281.36 15.4287H286.503V20.5716H281.36V15.4287ZM286.503 30.8573H291.646V36.0001H286.503V30.8573ZM286.503 36.0001H291.646V41.143H286.503V36.0001ZM286.503 25.7144H291.646V30.8573H286.503V25.7144ZM286.503 20.5716H291.646V25.7144H286.503V20.5716ZM286.503 0.000141144H291.646V5.143H286.503V0.000141144ZM286.503 5.143H291.646V10.2859H286.503V5.143ZM286.503 10.2859H291.646V15.4287H286.503V10.2859ZM286.503 15.4287H291.646V20.5716H286.503V15.4287ZM281.36 10.2859H286.503V15.4287H281.36V10.2859ZM276.217 15.4287H281.36V20.5716H276.217V15.4287ZM291.646 15.4287H296.789V20.5716H291.646V15.4287ZM296.789 15.4287H301.932V20.5716H296.789V15.4287ZM281.36 5.143H286.503V10.2859H281.36V5.143ZM276.217 20.5716H281.36V25.7144H276.217V20.5716ZM291.646 20.5716H296.789V25.7144H291.646V20.5716ZM296.789 20.5716H301.932V25.7144H296.789V20.5716Z" fill="white"/>
</svg>
